# Wavefront OBJ file automatically generated by Tiled2Unity

# Vertices (Count = 36)
v -64 -16 0
v -80 -16 0
v -80 0 0
v -64 0 0
v -48 -16 0
v -48 0 0
v -32 -16 0
v -32 0 0
v -16 -16 0
v -16 0 0
v 0 -16 0
v 0 0 0
v -64 -32 0
v -80 -32 0
v -48 -32 0
v -32 -32 0
v -16 -32 0
v 0 -32 0
v -64 -48 0
v -80 -48 0
v -48 -48 0
v -32 -48 0
v -16 -48 0
v 0 -48 0
v -64 -64 0
v -80 -64 0
v -48 -64 0
v -32 -64 0
v -16 -64 0
v 0 -64 0
v -64 -80 0
v -80 -80 0
v -48 -80 0
v -32 -80 0
v -16 -80 0
v 0 -80 0

# Texture cooridinates (Count = 4)
vt 0.0001220703 0.0001220703
vt 0.9998779 0.0001220703
vt 0.9998779 0.9998779
vt 0.0001220703 0.9998779

# Normal
vn 0 0 -1

# Groups (Count = 1)

g mesh_0001
f 1/1/1 2/2/1 3/3/1 4/4/1
f 5/1/1 1/2/1 4/3/1 6/4/1
f 7/1/1 5/2/1 6/3/1 8/4/1
f 9/1/1 7/2/1 8/3/1 10/4/1
f 11/1/1 9/2/1 10/3/1 12/4/1
f 13/1/1 14/2/1 2/3/1 1/4/1
f 15/1/1 13/2/1 1/3/1 5/4/1
f 16/1/1 15/2/1 5/3/1 7/4/1
f 17/1/1 16/2/1 7/3/1 9/4/1
f 18/1/1 17/2/1 9/3/1 11/4/1
f 19/1/1 20/2/1 14/3/1 13/4/1
f 21/1/1 19/2/1 13/3/1 15/4/1
f 22/1/1 21/2/1 15/3/1 16/4/1
f 23/1/1 22/2/1 16/3/1 17/4/1
f 24/1/1 23/2/1 17/3/1 18/4/1
f 25/1/1 26/2/1 20/3/1 19/4/1
f 27/1/1 25/2/1 19/3/1 21/4/1
f 28/1/1 27/2/1 21/3/1 22/4/1
f 29/1/1 28/2/1 22/3/1 23/4/1
f 30/1/1 29/2/1 23/3/1 24/4/1
f 31/1/1 32/2/1 26/3/1 25/4/1
f 33/1/1 31/2/1 25/3/1 27/4/1
f 34/1/1 33/2/1 27/3/1 28/4/1
f 35/1/1 34/2/1 28/3/1 29/4/1
f 36/1/1 35/2/1 29/3/1 30/4/1

