# Wavefront OBJ file automatically generated by Tiled2Unity

# Vertices (Count = 36)
v -4 -1 0
v -5 -1 0
v -5 0 0
v -4 0 0
v -3 -1 0
v -3 0 0
v -2 -1 0
v -2 0 0
v -1 -1 0
v -1 0 0
v 0 -1 0
v 0 0 0
v -4 -2 0
v -5 -2 0
v -3 -2 0
v -2 -2 0
v -1 -2 0
v 0 -2 0
v -4 -3 0
v -5 -3 0
v -3 -3 0
v -2 -3 0
v -1 -3 0
v 0 -3 0
v -4 -4 0
v -5 -4 0
v -3 -4 0
v -2 -4 0
v -1 -4 0
v 0 -4 0
v -4 -5 0
v -5 -5 0
v -3 -5 0
v -2 -5 0
v -1 -5 0
v 0 -5 0

# Texture cooridinates (Count = 8)
vt 0.5001221 0.4376221
vt 0.5623779 0.4376221
vt 0.5623779 0.4998779
vt 0.5001221 0.4998779
vt 0.6251221 0.4376221
vt 0.6873779 0.4376221
vt 0.6873779 0.4998779
vt 0.6251221 0.4998779

# Normal
vn 0 0 -1

# Groups (Count = 1)

g mesh_0001
f 1/1/1 2/2/1 3/3/1 4/4/1
f 5/5/1 1/6/1 4/7/1 6/8/1
f 7/1/1 5/2/1 6/3/1 8/4/1
f 9/5/1 7/6/1 8/7/1 10/8/1
f 11/1/1 9/2/1 10/3/1 12/4/1
f 13/1/1 14/2/1 2/3/1 1/4/1
f 15/5/1 13/6/1 1/7/1 5/8/1
f 16/1/1 15/2/1 5/3/1 7/4/1
f 17/5/1 16/6/1 7/7/1 9/8/1
f 18/1/1 17/2/1 9/3/1 11/4/1
f 19/1/1 20/2/1 14/3/1 13/4/1
f 21/5/1 19/6/1 13/7/1 15/8/1
f 22/1/1 21/2/1 15/3/1 16/4/1
f 23/5/1 22/6/1 16/7/1 17/8/1
f 24/1/1 23/2/1 17/3/1 18/4/1
f 25/1/1 26/2/1 20/3/1 19/4/1
f 27/5/1 25/6/1 19/7/1 21/8/1
f 28/1/1 27/2/1 21/3/1 22/4/1
f 29/5/1 28/6/1 22/7/1 23/8/1
f 30/1/1 29/2/1 23/3/1 24/4/1
f 31/1/1 32/2/1 26/3/1 25/4/1
f 33/5/1 31/6/1 25/7/1 27/8/1
f 34/1/1 33/2/1 27/3/1 28/4/1
f 35/5/1 34/6/1 28/7/1 29/8/1
f 36/1/1 35/2/1 29/3/1 30/4/1

